<mxfile host="app.diagrams.net" modified="2020-09-05T12:43:34.132Z" agent="5.0 (Windows NT 10.0; WOW64) AppleWebKit/537.36 (KHTML, like Gecko) Chrome/78.0.3904.108 Safari/537.36" etag="ZD04QKM7_qHKx-n2Y5AT" version="13.6.5" type="github">
  <diagram id="HR_QdrEKdC9s5gLF1wjv" name="Page-1">
    <mxGraphModel dx="1424" dy="725" grid="1" gridSize="10" guides="1" tooltips="1" connect="1" arrows="1" fold="1" page="1" pageScale="1" pageWidth="827" pageHeight="1169" math="0" shadow="0">
      <root>
        <mxCell id="0" />
        <mxCell id="1" parent="0" />
        <mxCell id="2kKz0QvdjKCaH95TL-t1-1" value="&lt;font style=&quot;font-size: 18px&quot;&gt;图像分割&lt;/font&gt;" style="shape=ext;double=1;rounded=1;whiteSpace=wrap;html=1;fillColor=#f5f5f5;strokeColor=#666666;fontColor=#333333;" parent="1" vertex="1">
          <mxGeometry x="290" y="30" width="120" height="80" as="geometry" />
        </mxCell>
      </root>
    </mxGraphModel>
  </diagram>
</mxfile>
